<mxfile host="Electron" agent="Mozilla/5.0 (X11; Linux x86_64) AppleWebKit/537.36 (KHTML, like Gecko) draw.io/24.7.5 Chrome/126.0.6478.183 Electron/31.3.0 Safari/537.36" version="24.7.5">
  <diagram name="第 1 页" id="dyvrZaaA81_YIaX40caz">
    <mxGraphModel dx="1285" dy="791" grid="1" gridSize="10" guides="1" tooltips="1" connect="1" arrows="1" fold="1" page="1" pageScale="1" pageWidth="827" pageHeight="1169" math="0" shadow="0">
      <root>
        <mxCell id="0" />
        <mxCell id="1" parent="0" />
        <mxCell id="_5qD5XHQ0qIGBPpxdDvs-19" style="edgeStyle=orthogonalEdgeStyle;rounded=0;orthogonalLoop=1;jettySize=auto;html=1;entryX=0.75;entryY=1;entryDx=0;entryDy=0;" edge="1" parent="1" source="OIBxPijXESQaB5WeByGO-59" target="_5qD5XHQ0qIGBPpxdDvs-13">
          <mxGeometry relative="1" as="geometry">
            <Array as="points">
              <mxPoint x="1000" y="638" />
              <mxPoint x="1000" y="220" />
            </Array>
          </mxGeometry>
        </mxCell>
        <mxCell id="YnV503TO5l-ceWqFj_w4-2" style="edgeStyle=orthogonalEdgeStyle;rounded=0;orthogonalLoop=1;jettySize=auto;html=1;entryX=0.75;entryY=1;entryDx=0;entryDy=0;" parent="1" source="YnV503TO5l-ceWqFj_w4-1" target="CT363RQZues31OWTp8OF-73" edge="1">
          <mxGeometry relative="1" as="geometry" />
        </mxCell>
        <mxCell id="_WPy62xfrjCXm8pKiQzA-3" style="edgeStyle=orthogonalEdgeStyle;rounded=0;orthogonalLoop=1;jettySize=auto;html=1;entryX=0;entryY=0.5;entryDx=0;entryDy=0;entryPerimeter=0;jumpStyle=arc;jumpSize=10;" parent="1" source="CT363RQZues31OWTp8OF-21" target="OIBxPijXESQaB5WeByGO-3" edge="1">
          <mxGeometry relative="1" as="geometry">
            <Array as="points">
              <mxPoint x="800" y="580" />
              <mxPoint x="800" y="671" />
            </Array>
          </mxGeometry>
        </mxCell>
        <mxCell id="CT363RQZues31OWTp8OF-128" style="edgeStyle=orthogonalEdgeStyle;rounded=0;orthogonalLoop=1;jettySize=auto;html=1;exitX=1;exitY=0.75;exitDx=0;exitDy=0;exitPerimeter=0;entryX=0.25;entryY=1;entryDx=0;entryDy=0;startArrow=dash;startFill=0;jumpStyle=arc;jumpSize=10;" parent="1" source="CT363RQZues31OWTp8OF-12" target="CT363RQZues31OWTp8OF-73" edge="1">
          <mxGeometry relative="1" as="geometry" />
        </mxCell>
        <mxCell id="CT363RQZues31OWTp8OF-163" value="32" style="edgeLabel;html=1;align=center;verticalAlign=middle;resizable=0;points=[];" parent="CT363RQZues31OWTp8OF-128" vertex="1" connectable="0">
          <mxGeometry x="0.0417" y="2" relative="1" as="geometry">
            <mxPoint x="-8" y="2" as="offset" />
          </mxGeometry>
        </mxCell>
        <mxCell id="OIBxPijXESQaB5WeByGO-52" style="edgeStyle=orthogonalEdgeStyle;rounded=0;orthogonalLoop=1;jettySize=auto;html=1;exitX=1;exitY=0.5;exitDx=0;exitDy=0;entryX=0;entryY=0.5;entryDx=0;entryDy=0;" parent="1" source="CT363RQZues31OWTp8OF-26" target="OIBxPijXESQaB5WeByGO-39" edge="1">
          <mxGeometry relative="1" as="geometry" />
        </mxCell>
        <mxCell id="CT363RQZues31OWTp8OF-136" style="edgeStyle=orthogonalEdgeStyle;rounded=0;orthogonalLoop=1;jettySize=auto;html=1;entryX=0;entryY=0.5;entryDx=0;entryDy=0;startArrow=dash;startFill=0;jumpStyle=arc;jumpSize=10;exitX=1;exitY=0.5;exitDx=0;exitDy=0;" parent="1" source="CT363RQZues31OWTp8OF-21" target="CT363RQZues31OWTp8OF-74" edge="1">
          <mxGeometry relative="1" as="geometry">
            <Array as="points">
              <mxPoint x="540" y="580" />
              <mxPoint x="540" y="440" />
            </Array>
          </mxGeometry>
        </mxCell>
        <mxCell id="CT363RQZues31OWTp8OF-141" style="edgeStyle=orthogonalEdgeStyle;rounded=0;orthogonalLoop=1;jettySize=auto;html=1;entryX=0.75;entryY=1;entryDx=0;entryDy=0;jumpStyle=arc;jumpSize=10;exitX=1;exitY=0.5;exitDx=0;exitDy=0;" parent="1" source="CT363RQZues31OWTp8OF-21" target="CT363RQZues31OWTp8OF-38" edge="1">
          <mxGeometry relative="1" as="geometry">
            <Array as="points">
              <mxPoint x="540" y="580" />
              <mxPoint x="540" y="150" />
            </Array>
          </mxGeometry>
        </mxCell>
        <mxCell id="CT363RQZues31OWTp8OF-145" value="imm" style="edgeLabel;html=1;align=center;verticalAlign=middle;resizable=0;points=[];" parent="CT363RQZues31OWTp8OF-141" vertex="1" connectable="0">
          <mxGeometry x="0.8686" y="-2" relative="1" as="geometry">
            <mxPoint y="-2" as="offset" />
          </mxGeometry>
        </mxCell>
        <mxCell id="j3lGkmes57TnUZFngEGb-31" value="32" style="edgeLabel;html=1;align=center;verticalAlign=middle;resizable=0;points=[];" parent="CT363RQZues31OWTp8OF-141" vertex="1" connectable="0">
          <mxGeometry x="-0.9242" y="-1" relative="1" as="geometry">
            <mxPoint y="-1" as="offset" />
          </mxGeometry>
        </mxCell>
        <mxCell id="CT363RQZues31OWTp8OF-118" style="edgeStyle=orthogonalEdgeStyle;rounded=0;orthogonalLoop=1;jettySize=auto;html=1;entryX=0;entryY=0.5;entryDx=0;entryDy=0;jumpStyle=none;jumpSize=10;" parent="1" source="CT363RQZues31OWTp8OF-8" target="CT363RQZues31OWTp8OF-21" edge="1">
          <mxGeometry relative="1" as="geometry">
            <Array as="points">
              <mxPoint x="340" y="390" />
              <mxPoint x="340" y="580" />
            </Array>
          </mxGeometry>
        </mxCell>
        <mxCell id="CT363RQZues31OWTp8OF-159" value="inst" style="edgeLabel;html=1;align=center;verticalAlign=middle;resizable=0;points=[];" parent="CT363RQZues31OWTp8OF-118" vertex="1" connectable="0">
          <mxGeometry x="0.7398" relative="1" as="geometry">
            <mxPoint as="offset" />
          </mxGeometry>
        </mxCell>
        <mxCell id="CT363RQZues31OWTp8OF-120" style="edgeStyle=orthogonalEdgeStyle;rounded=0;orthogonalLoop=1;jettySize=auto;html=1;entryX=0;entryY=0.25;entryDx=0;entryDy=0;jumpStyle=none;jumpSize=10;" parent="1" source="CT363RQZues31OWTp8OF-8" target="CT363RQZues31OWTp8OF-26" edge="1">
          <mxGeometry relative="1" as="geometry">
            <Array as="points">
              <mxPoint x="340" y="390" />
              <mxPoint x="340" y="660" />
            </Array>
          </mxGeometry>
        </mxCell>
        <mxCell id="CT363RQZues31OWTp8OF-160" value="inst" style="edgeLabel;html=1;align=center;verticalAlign=middle;resizable=0;points=[];" parent="CT363RQZues31OWTp8OF-120" vertex="1" connectable="0">
          <mxGeometry x="0.8207" relative="1" as="geometry">
            <mxPoint as="offset" />
          </mxGeometry>
        </mxCell>
        <mxCell id="OIBxPijXESQaB5WeByGO-21" style="edgeStyle=orthogonalEdgeStyle;rounded=0;orthogonalLoop=1;jettySize=auto;html=1;exitX=1;exitY=0.25;exitDx=0;exitDy=0;exitPerimeter=0;entryX=0.25;entryY=1;entryDx=0;entryDy=0;jumpStyle=arc;jumpSize=10;" parent="1" source="CT363RQZues31OWTp8OF-12" target="OIBxPijXESQaB5WeByGO-19" edge="1">
          <mxGeometry relative="1" as="geometry">
            <Array as="points">
              <mxPoint x="570" y="360" />
              <mxPoint x="570" y="550" />
              <mxPoint x="700" y="550" />
              <mxPoint x="700" y="683" />
            </Array>
          </mxGeometry>
        </mxCell>
        <mxCell id="OIBxPijXESQaB5WeByGO-27" value="rd1" style="edgeLabel;html=1;align=center;verticalAlign=middle;resizable=0;points=[];" parent="OIBxPijXESQaB5WeByGO-21" vertex="1" connectable="0">
          <mxGeometry x="0.8531" relative="1" as="geometry">
            <mxPoint x="12" as="offset" />
          </mxGeometry>
        </mxCell>
        <mxCell id="CT363RQZues31OWTp8OF-102" style="edgeStyle=orthogonalEdgeStyle;rounded=0;orthogonalLoop=1;jettySize=auto;html=1;entryX=0;entryY=0.75;entryDx=0;entryDy=0;jumpStyle=none;jumpSize=10;exitX=0.5;exitY=0;exitDx=0;exitDy=0;" parent="1" source="_5qD5XHQ0qIGBPpxdDvs-13" target="CT363RQZues31OWTp8OF-8" edge="1">
          <mxGeometry relative="1" as="geometry">
            <Array as="points">
              <mxPoint x="1120" y="200" />
              <mxPoint x="1120" y="80" />
              <mxPoint x="80" y="80" />
              <mxPoint x="80" y="420" />
            </Array>
            <mxPoint x="940" y="160" as="sourcePoint" />
          </mxGeometry>
        </mxCell>
        <mxCell id="CT363RQZues31OWTp8OF-103" value="32" style="edgeLabel;html=1;align=center;verticalAlign=middle;resizable=0;points=[];" parent="CT363RQZues31OWTp8OF-102" vertex="1" connectable="0">
          <mxGeometry x="0.9296" y="-1" relative="1" as="geometry">
            <mxPoint x="28" y="-1" as="offset" />
          </mxGeometry>
        </mxCell>
        <mxCell id="CT363RQZues31OWTp8OF-1" value="RVCPU" style="text;html=1;align=center;verticalAlign=middle;resizable=0;points=[];autosize=1;strokeColor=none;fillColor=none;rounded=0;glass=0;fontStyle=1;fontSize=40;" parent="1" vertex="1">
          <mxGeometry x="550" y="10" width="160" height="60" as="geometry" />
        </mxCell>
        <mxCell id="CT363RQZues31OWTp8OF-5" value="" style="group" parent="1" vertex="1" connectable="0">
          <mxGeometry x="120" y="220" width="40" height="60" as="geometry" />
        </mxCell>
        <mxCell id="CT363RQZues31OWTp8OF-3" value="" style="rounded=0;whiteSpace=wrap;html=1;" parent="CT363RQZues31OWTp8OF-5" vertex="1">
          <mxGeometry width="40" height="60" as="geometry" />
        </mxCell>
        <mxCell id="CT363RQZues31OWTp8OF-4" value="PC" style="text;html=1;align=center;verticalAlign=middle;whiteSpace=wrap;rounded=0;" parent="CT363RQZues31OWTp8OF-5" vertex="1">
          <mxGeometry y="20" width="40" height="20" as="geometry" />
        </mxCell>
        <mxCell id="D4LHTWqdu4Y0QwPP1PMC-16" value="&lt;font color=&quot;#007fff&quot;&gt;clock&lt;/font&gt;" style="text;html=1;align=center;verticalAlign=middle;whiteSpace=wrap;rounded=0;" parent="CT363RQZues31OWTp8OF-5" vertex="1">
          <mxGeometry x="5.5" y="50" width="29" height="10" as="geometry" />
        </mxCell>
        <mxCell id="CT363RQZues31OWTp8OF-10" value="" style="group" parent="1" vertex="1" connectable="0">
          <mxGeometry x="200" y="330" width="80" height="120" as="geometry" />
        </mxCell>
        <mxCell id="CT363RQZues31OWTp8OF-8" value="" style="rounded=0;whiteSpace=wrap;html=1;" parent="CT363RQZues31OWTp8OF-10" vertex="1">
          <mxGeometry width="80" height="120" as="geometry" />
        </mxCell>
        <mxCell id="CT363RQZues31OWTp8OF-9" value="Instr&lt;div style=&quot;font-size: 17px;&quot;&gt;Mem&lt;/div&gt;" style="text;html=1;align=center;verticalAlign=middle;whiteSpace=wrap;rounded=0;fontSize=17;" parent="CT363RQZues31OWTp8OF-10" vertex="1">
          <mxGeometry x="10" y="50" width="60" height="30" as="geometry" />
        </mxCell>
        <mxCell id="D4LHTWqdu4Y0QwPP1PMC-5" value="&lt;font color=&quot;#007fff&quot;&gt;clock&lt;/font&gt;" style="text;html=1;align=center;verticalAlign=middle;whiteSpace=wrap;rounded=0;" parent="CT363RQZues31OWTp8OF-10" vertex="1">
          <mxGeometry x="1" y="20" width="29" height="20" as="geometry" />
        </mxCell>
        <mxCell id="D4LHTWqdu4Y0QwPP1PMC-6" value="pc" style="text;html=1;align=center;verticalAlign=middle;whiteSpace=wrap;rounded=0;fontColor=#007FFF;" parent="CT363RQZues31OWTp8OF-10" vertex="1">
          <mxGeometry y="80" width="20" height="20" as="geometry" />
        </mxCell>
        <mxCell id="D4LHTWqdu4Y0QwPP1PMC-7" value="&lt;font color=&quot;#007fff&quot;&gt;inst&lt;/font&gt;" style="text;html=1;align=center;verticalAlign=middle;whiteSpace=wrap;rounded=0;" parent="CT363RQZues31OWTp8OF-10" vertex="1">
          <mxGeometry x="60" y="50" width="20" height="20" as="geometry" />
        </mxCell>
        <mxCell id="CT363RQZues31OWTp8OF-14" value="" style="group" parent="1" vertex="1" connectable="0">
          <mxGeometry x="870" y="364" width="80" height="130" as="geometry" />
        </mxCell>
        <mxCell id="D4LHTWqdu4Y0QwPP1PMC-109" value="" style="group" parent="CT363RQZues31OWTp8OF-14" vertex="1" connectable="0">
          <mxGeometry width="80" height="130" as="geometry" />
        </mxCell>
        <mxCell id="CT363RQZues31OWTp8OF-15" value="" style="rounded=0;whiteSpace=wrap;html=1;points=[[0,0,0,0,0],[0,0.2,0,0,0],[0,0.4,0,0,0],[0,0.6,0,0,0],[0,0.8,0,0,0],[0,1,0,0,0],[0.25,0,0,0,0],[0.25,1,0,0,0],[0.5,0,0,0,0],[0.5,1,0,0,0],[0.75,0,0,0,0],[0.75,1,0,0,0],[1,0,0,0,0],[1,0.25,0,0,0],[1,0.5,0,0,0],[1,0.75,0,0,0],[1,1,0,0,0]];" parent="D4LHTWqdu4Y0QwPP1PMC-109" vertex="1">
          <mxGeometry width="80" height="130" as="geometry" />
        </mxCell>
        <mxCell id="CT363RQZues31OWTp8OF-16" value="Mem&lt;div style=&quot;font-size: 14px;&quot;&gt;Control&lt;/div&gt;" style="text;html=1;align=center;verticalAlign=middle;whiteSpace=wrap;rounded=0;fontSize=14;" parent="D4LHTWqdu4Y0QwPP1PMC-109" vertex="1">
          <mxGeometry x="10.5" y="49.99999999999999" width="60" height="30" as="geometry" />
        </mxCell>
        <mxCell id="OIBxPijXESQaB5WeByGO-33" value="rdata" style="edgeLabel;html=1;align=center;verticalAlign=middle;resizable=0;points=[];fontSize=12;fontColor=#007FFF;labelBackgroundColor=none;" parent="D4LHTWqdu4Y0QwPP1PMC-109" vertex="1" connectable="0">
          <mxGeometry x="68.00380952380942" y="64.99999999999977" as="geometry">
            <mxPoint x="-3" as="offset" />
          </mxGeometry>
        </mxCell>
        <mxCell id="D4LHTWqdu4Y0QwPP1PMC-17" value="&lt;font color=&quot;#007fff&quot;&gt;clock&lt;/font&gt;" style="text;html=1;align=center;verticalAlign=middle;whiteSpace=wrap;rounded=0;" parent="CT363RQZues31OWTp8OF-14" vertex="1">
          <mxGeometry x="6" y="120" width="29" height="10" as="geometry" />
        </mxCell>
        <mxCell id="D4LHTWqdu4Y0QwPP1PMC-78" value="raddr&amp;amp;waddr" style="edgeLabel;html=1;align=center;verticalAlign=middle;resizable=0;points=[];fontSize=12;fontColor=#007FFF;labelBackgroundColor=none;" parent="CT363RQZues31OWTp8OF-14" vertex="1" connectable="0">
          <mxGeometry x="38.50380952380942" y="25.999999999999773" as="geometry">
            <mxPoint x="-3" as="offset" />
          </mxGeometry>
        </mxCell>
        <mxCell id="D4LHTWqdu4Y0QwPP1PMC-79" value="wdata" style="edgeLabel;html=1;align=center;verticalAlign=middle;resizable=0;points=[];fontSize=12;fontColor=#007FFF;labelBackgroundColor=none;" parent="CT363RQZues31OWTp8OF-14" vertex="1" connectable="0">
          <mxGeometry x="20.503809523809423" y="103.99999999999977" as="geometry">
            <mxPoint x="-3" as="offset" />
          </mxGeometry>
        </mxCell>
        <mxCell id="D4LHTWqdu4Y0QwPP1PMC-94" value="memOp" style="text;html=1;align=center;verticalAlign=middle;whiteSpace=wrap;rounded=0;fontColor=#007FFF;" parent="CT363RQZues31OWTp8OF-14" vertex="1">
          <mxGeometry x="26" y="1" width="29" height="10" as="geometry" />
        </mxCell>
        <mxCell id="D4LHTWqdu4Y0QwPP1PMC-100" value="wen" style="text;html=1;align=center;verticalAlign=middle;whiteSpace=wrap;rounded=0;fontColor=#007FFF;" parent="CT363RQZues31OWTp8OF-14" vertex="1">
          <mxGeometry x="45" y="120" width="29" height="10" as="geometry" />
        </mxCell>
        <mxCell id="CT363RQZues31OWTp8OF-23" value="" style="group" parent="1" vertex="1" connectable="0">
          <mxGeometry x="440" y="540" width="80" height="80" as="geometry" />
        </mxCell>
        <mxCell id="CT363RQZues31OWTp8OF-21" value="" style="whiteSpace=wrap;html=1;aspect=fixed;" parent="CT363RQZues31OWTp8OF-23" vertex="1">
          <mxGeometry width="80" height="80" as="geometry" />
        </mxCell>
        <mxCell id="CT363RQZues31OWTp8OF-22" value="&lt;font style=&quot;font-size: 14px;&quot;&gt;Imm&lt;br&gt;Gen&lt;/font&gt;" style="text;html=1;align=center;verticalAlign=middle;whiteSpace=wrap;rounded=0;" parent="CT363RQZues31OWTp8OF-23" vertex="1">
          <mxGeometry x="10" y="25" width="60" height="30" as="geometry" />
        </mxCell>
        <mxCell id="D4LHTWqdu4Y0QwPP1PMC-29" value="immType" style="edgeLabel;html=1;align=center;verticalAlign=middle;resizable=0;points=[];fontSize=12;fontColor=#007FFF;" parent="CT363RQZues31OWTp8OF-23" vertex="1" connectable="0">
          <mxGeometry x="39.00380952380942" y="-100.00000000000023" as="geometry">
            <mxPoint x="-14" y="118" as="offset" />
          </mxGeometry>
        </mxCell>
        <mxCell id="D4LHTWqdu4Y0QwPP1PMC-30" value="instr" style="edgeLabel;html=1;align=center;verticalAlign=middle;resizable=0;points=[];fontSize=12;fontColor=#007FFF;" parent="CT363RQZues31OWTp8OF-23" vertex="1" connectable="0">
          <mxGeometry x="12.003809523809423" y="39.99999999999977" as="geometry" />
        </mxCell>
        <mxCell id="j3lGkmes57TnUZFngEGb-30" value="imm" style="edgeLabel;html=1;align=center;verticalAlign=middle;resizable=0;points=[];fontSize=12;fontColor=#007FFF;" parent="CT363RQZues31OWTp8OF-23" vertex="1" connectable="0">
          <mxGeometry x="66.00380952380942" y="37.99999999999977" as="geometry" />
        </mxCell>
        <mxCell id="CT363RQZues31OWTp8OF-28" value="" style="group" parent="1" vertex="1" connectable="0">
          <mxGeometry x="827" y="210" width="80" height="80" as="geometry" />
        </mxCell>
        <mxCell id="CT363RQZues31OWTp8OF-29" value="" style="whiteSpace=wrap;html=1;aspect=fixed;" parent="CT363RQZues31OWTp8OF-28" vertex="1">
          <mxGeometry width="80" height="80" as="geometry" />
        </mxCell>
        <mxCell id="D4LHTWqdu4Y0QwPP1PMC-60" value="brType" style="edgeLabel;html=1;align=center;verticalAlign=middle;resizable=0;points=[];fontSize=12;fontColor=#007FFF;labelBackgroundColor=none;" parent="CT363RQZues31OWTp8OF-28" vertex="1" connectable="0">
          <mxGeometry x="22.003809523809423" y="19.999999999999773" as="geometry">
            <mxPoint x="-3" as="offset" />
          </mxGeometry>
        </mxCell>
        <mxCell id="D4LHTWqdu4Y0QwPP1PMC-61" value="less" style="edgeLabel;html=1;align=center;verticalAlign=middle;resizable=0;points=[];fontSize=12;fontColor=#007FFF;labelBackgroundColor=none;" parent="CT363RQZues31OWTp8OF-28" vertex="1" connectable="0">
          <mxGeometry x="10.003809523809423" y="39.99999999999977" as="geometry">
            <mxPoint x="4" y="-1" as="offset" />
          </mxGeometry>
        </mxCell>
        <mxCell id="CT363RQZues31OWTp8OF-30" value="&lt;span style=&quot;font-size: 14px;&quot;&gt;Branch&lt;br&gt;Cond&lt;/span&gt;" style="text;html=1;align=center;verticalAlign=middle;whiteSpace=wrap;rounded=0;" parent="CT363RQZues31OWTp8OF-28" vertex="1">
          <mxGeometry x="30" y="27.5" width="50" height="25" as="geometry" />
        </mxCell>
        <mxCell id="D4LHTWqdu4Y0QwPP1PMC-62" value="zero" style="edgeLabel;html=1;align=center;verticalAlign=middle;resizable=0;points=[];fontSize=12;fontColor=#007FFF;labelBackgroundColor=none;" parent="CT363RQZues31OWTp8OF-28" vertex="1" connectable="0">
          <mxGeometry x="10.003809523809423" y="59.99999999999977" as="geometry">
            <mxPoint x="4" y="-1" as="offset" />
          </mxGeometry>
        </mxCell>
        <mxCell id="CT363RQZues31OWTp8OF-40" value="" style="group" parent="1" vertex="1" connectable="0">
          <mxGeometry x="440" y="330" width="80" height="120" as="geometry" />
        </mxCell>
        <mxCell id="CT363RQZues31OWTp8OF-12" value="" style="rounded=0;whiteSpace=wrap;html=1;points=[[0,0,0,0,0],[0,0.17,0,0,0],[0,0.34,0,0,0],[0,0.5,0,0,0],[0,0.67,0,0,0],[0,0.83,0,0,0],[0,1,0,0,0],[0.25,0,0,0,0],[0.25,1,0,0,0],[0.5,0,0,0,0],[0.5,1,0,0,0],[0.75,0,0,0,0],[0.75,1,0,0,0],[1,0,0,0,0],[1,0.25,0,0,0],[1,0.5,0,0,0],[1,0.75,0,0,0],[1,1,0,0,0]];" parent="CT363RQZues31OWTp8OF-40" vertex="1">
          <mxGeometry width="80" height="120" as="geometry" />
        </mxCell>
        <mxCell id="CT363RQZues31OWTp8OF-13" value="Reg&lt;br&gt;File" style="text;html=1;align=center;verticalAlign=middle;whiteSpace=wrap;rounded=0;fontSize=17;" parent="CT363RQZues31OWTp8OF-40" vertex="1">
          <mxGeometry x="10" y="45" width="60" height="30" as="geometry" />
        </mxCell>
        <mxCell id="D4LHTWqdu4Y0QwPP1PMC-11" value="ra1" style="edgeLabel;html=1;align=center;verticalAlign=middle;resizable=0;points=[];fontSize=12;fontColor=#007FFF;" parent="CT363RQZues31OWTp8OF-40" vertex="1" connectable="0">
          <mxGeometry x="10.003809523809423" y="19.999999999999773" as="geometry" />
        </mxCell>
        <mxCell id="D4LHTWqdu4Y0QwPP1PMC-12" value="ra2" style="edgeLabel;html=1;align=center;verticalAlign=middle;resizable=0;points=[];fontSize=12;fontColor=#007FFF;" parent="CT363RQZues31OWTp8OF-40" vertex="1" connectable="0">
          <mxGeometry x="10.003809523809423" y="39.99999999999977" as="geometry" />
        </mxCell>
        <mxCell id="D4LHTWqdu4Y0QwPP1PMC-13" value="wa" style="edgeLabel;html=1;align=center;verticalAlign=middle;resizable=0;points=[];fontSize=12;fontColor=#007FFF;" parent="CT363RQZues31OWTp8OF-40" vertex="1" connectable="0">
          <mxGeometry x="10.003809523809423" y="59.99999999999977" as="geometry">
            <mxPoint y="-1" as="offset" />
          </mxGeometry>
        </mxCell>
        <mxCell id="D4LHTWqdu4Y0QwPP1PMC-14" value="wd" style="edgeLabel;html=1;align=center;verticalAlign=middle;resizable=0;points=[];fontSize=12;fontColor=#007FFF;" parent="CT363RQZues31OWTp8OF-40" vertex="1" connectable="0">
          <mxGeometry x="10.003809523809423" y="79.99999999999977" as="geometry" />
        </mxCell>
        <mxCell id="D4LHTWqdu4Y0QwPP1PMC-18" value="we" style="edgeLabel;html=1;align=center;verticalAlign=middle;resizable=0;points=[];fontSize=12;fontColor=#007FFF;" parent="CT363RQZues31OWTp8OF-40" vertex="1" connectable="0">
          <mxGeometry x="10.003809523809423" y="99.99999999999977" as="geometry" />
        </mxCell>
        <mxCell id="CT363RQZues31OWTp8OF-47" value="" style="group" parent="1" vertex="1" connectable="0">
          <mxGeometry x="590" y="90" width="70" height="80" as="geometry" />
        </mxCell>
        <mxCell id="CT363RQZues31OWTp8OF-38" value="" style="shape=trapezoid;perimeter=trapezoidPerimeter;whiteSpace=wrap;html=1;fixedSize=1;rotation=90;" parent="CT363RQZues31OWTp8OF-47" vertex="1">
          <mxGeometry x="-10" y="20" width="80" height="40" as="geometry" />
        </mxCell>
        <mxCell id="CT363RQZues31OWTp8OF-46" value="MUX" style="text;html=1;align=center;verticalAlign=middle;whiteSpace=wrap;rounded=0;fontSize=12;" parent="CT363RQZues31OWTp8OF-47" vertex="1">
          <mxGeometry y="25" width="60" height="30" as="geometry" />
        </mxCell>
        <mxCell id="CT363RQZues31OWTp8OF-53" value="" style="group" parent="1" vertex="1" connectable="0">
          <mxGeometry x="590" y="300" width="70" height="80" as="geometry" />
        </mxCell>
        <mxCell id="CT363RQZues31OWTp8OF-54" value="" style="shape=trapezoid;perimeter=trapezoidPerimeter;whiteSpace=wrap;html=1;fixedSize=1;rotation=90;" parent="CT363RQZues31OWTp8OF-53" vertex="1">
          <mxGeometry x="-10" y="20" width="80" height="40" as="geometry" />
        </mxCell>
        <mxCell id="CT363RQZues31OWTp8OF-55" value="MUX" style="text;html=1;align=center;verticalAlign=middle;whiteSpace=wrap;rounded=0;fontSize=14;" parent="CT363RQZues31OWTp8OF-53" vertex="1">
          <mxGeometry x="10" y="30" width="40" height="20" as="geometry" />
        </mxCell>
        <mxCell id="CT363RQZues31OWTp8OF-61" value="" style="group" parent="1" vertex="1" connectable="0">
          <mxGeometry x="680" y="130" width="80" height="100" as="geometry" />
        </mxCell>
        <mxCell id="CT363RQZues31OWTp8OF-62" value="" style="shape=trapezoid;perimeter=trapezoidPerimeter;whiteSpace=wrap;html=1;fixedSize=1;rotation=90;" parent="CT363RQZues31OWTp8OF-61" vertex="1">
          <mxGeometry x="-25.003571428571433" y="25" width="100.00714285714287" height="50" as="geometry" />
        </mxCell>
        <mxCell id="CT363RQZues31OWTp8OF-63" value="&lt;font style=&quot;font-size: 14px;&quot;&gt;+&lt;/font&gt;" style="text;html=1;align=center;verticalAlign=middle;whiteSpace=wrap;rounded=0;" parent="CT363RQZues31OWTp8OF-61" vertex="1">
          <mxGeometry x="-0.0017857142857167219" y="37.5" width="50.00357142857143" height="25" as="geometry" />
        </mxCell>
        <mxCell id="CT363RQZues31OWTp8OF-78" style="edgeStyle=orthogonalEdgeStyle;rounded=0;orthogonalLoop=1;jettySize=auto;html=1;entryX=0;entryY=0.25;entryDx=0;entryDy=0;curved=0;jumpStyle=arc;jumpSize=10;strokeColor=#ff0000;" parent="1" source="CT363RQZues31OWTp8OF-64" target="CT363RQZues31OWTp8OF-8" edge="1">
          <mxGeometry relative="1" as="geometry" />
        </mxCell>
        <mxCell id="CT363RQZues31OWTp8OF-165" style="edgeStyle=orthogonalEdgeStyle;rounded=0;orthogonalLoop=1;jettySize=auto;html=1;entryX=0.5;entryY=1;entryDx=0;entryDy=0;strokeColor=#ff0000;jumpStyle=arc;jumpSize=10;" parent="1" source="CT363RQZues31OWTp8OF-64" target="CT363RQZues31OWTp8OF-3" edge="1">
          <mxGeometry relative="1" as="geometry" />
        </mxCell>
        <mxCell id="CT363RQZues31OWTp8OF-64" value="&lt;font style=&quot;font-size: 20px;&quot; color=&quot;#ff0000&quot;&gt;clock&lt;/font&gt;" style="text;html=1;align=center;verticalAlign=middle;whiteSpace=wrap;rounded=0;fontStyle=1;fontSize=20;" parent="1" vertex="1">
          <mxGeometry y="345" width="60" height="30" as="geometry" />
        </mxCell>
        <mxCell id="CT363RQZues31OWTp8OF-72" value="" style="group" parent="1" vertex="1" connectable="0">
          <mxGeometry x="600" y="400" width="60" height="80" as="geometry" />
        </mxCell>
        <mxCell id="CT363RQZues31OWTp8OF-73" value="" style="shape=trapezoid;perimeter=trapezoidPerimeter;whiteSpace=wrap;html=1;fixedSize=1;rotation=90;" parent="CT363RQZues31OWTp8OF-72" vertex="1">
          <mxGeometry x="-20" y="20" width="80" height="40" as="geometry" />
        </mxCell>
        <mxCell id="CT363RQZues31OWTp8OF-74" value="MUX" style="text;html=1;align=center;verticalAlign=middle;whiteSpace=wrap;rounded=0;fontSize=14;" parent="CT363RQZues31OWTp8OF-72" vertex="1">
          <mxGeometry y="30" width="40" height="20" as="geometry" />
        </mxCell>
        <mxCell id="CT363RQZues31OWTp8OF-89" style="edgeStyle=orthogonalEdgeStyle;rounded=0;orthogonalLoop=1;jettySize=auto;html=1;entryX=0.25;entryY=1;entryDx=0;entryDy=0;" parent="1" source="CT363RQZues31OWTp8OF-88" target="CT363RQZues31OWTp8OF-38" edge="1">
          <mxGeometry relative="1" as="geometry">
            <mxPoint x="540" y="135" as="targetPoint" />
          </mxGeometry>
        </mxCell>
        <mxCell id="CT363RQZues31OWTp8OF-88" value="4" style="text;html=1;align=center;verticalAlign=middle;resizable=0;points=[];autosize=1;strokeColor=none;fillColor=none;" parent="1" vertex="1">
          <mxGeometry x="513" y="95" width="30" height="30" as="geometry" />
        </mxCell>
        <mxCell id="CT363RQZues31OWTp8OF-91" style="edgeStyle=orthogonalEdgeStyle;rounded=0;orthogonalLoop=1;jettySize=auto;html=1;entryX=0.25;entryY=1;entryDx=0;entryDy=0;" parent="1" source="CT363RQZues31OWTp8OF-38" target="CT363RQZues31OWTp8OF-62" edge="1">
          <mxGeometry relative="1" as="geometry" />
        </mxCell>
        <mxCell id="CT363RQZues31OWTp8OF-93" style="edgeStyle=orthogonalEdgeStyle;rounded=0;orthogonalLoop=1;jettySize=auto;html=1;entryX=0.75;entryY=1;entryDx=0;entryDy=0;" parent="1" source="CT363RQZues31OWTp8OF-51" target="CT363RQZues31OWTp8OF-62" edge="1">
          <mxGeometry relative="1" as="geometry" />
        </mxCell>
        <mxCell id="CT363RQZues31OWTp8OF-107" style="edgeStyle=orthogonalEdgeStyle;rounded=0;orthogonalLoop=1;jettySize=auto;html=1;entryX=0;entryY=0.5;entryDx=0;entryDy=0;startArrow=dash;startFill=0;" parent="1" source="CT363RQZues31OWTp8OF-8" target="CT363RQZues31OWTp8OF-12" edge="1">
          <mxGeometry relative="1" as="geometry" />
        </mxCell>
        <mxCell id="CT363RQZues31OWTp8OF-158" value="inst[11:7]" style="edgeLabel;html=1;align=center;verticalAlign=middle;resizable=0;points=[];" parent="CT363RQZues31OWTp8OF-107" vertex="1" connectable="0">
          <mxGeometry x="0.4458" relative="1" as="geometry">
            <mxPoint as="offset" />
          </mxGeometry>
        </mxCell>
        <mxCell id="CT363RQZues31OWTp8OF-113" style="edgeStyle=orthogonalEdgeStyle;rounded=0;orthogonalLoop=1;jettySize=auto;html=1;exitX=1;exitY=0.5;exitDx=0;exitDy=0;entryX=0;entryY=0.34;entryDx=0;entryDy=0;entryPerimeter=0;" parent="1" source="CT363RQZues31OWTp8OF-8" target="CT363RQZues31OWTp8OF-12" edge="1">
          <mxGeometry relative="1" as="geometry">
            <Array as="points">
              <mxPoint x="340" y="390" />
              <mxPoint x="340" y="371" />
            </Array>
          </mxGeometry>
        </mxCell>
        <mxCell id="CT363RQZues31OWTp8OF-157" value="inst[24:20]" style="edgeLabel;html=1;align=center;verticalAlign=middle;resizable=0;points=[];" parent="CT363RQZues31OWTp8OF-113" vertex="1" connectable="0">
          <mxGeometry x="0.5052" y="-1" relative="1" as="geometry">
            <mxPoint as="offset" />
          </mxGeometry>
        </mxCell>
        <mxCell id="CT363RQZues31OWTp8OF-114" style="edgeStyle=orthogonalEdgeStyle;rounded=0;orthogonalLoop=1;jettySize=auto;html=1;exitX=1;exitY=0.5;exitDx=0;exitDy=0;entryX=0;entryY=0.17;entryDx=0;entryDy=0;entryPerimeter=0;" parent="1" source="CT363RQZues31OWTp8OF-8" target="CT363RQZues31OWTp8OF-12" edge="1">
          <mxGeometry relative="1" as="geometry">
            <Array as="points">
              <mxPoint x="340" y="390" />
              <mxPoint x="340" y="350" />
            </Array>
          </mxGeometry>
        </mxCell>
        <mxCell id="CT363RQZues31OWTp8OF-155" value="inst[19:15]" style="edgeLabel;html=1;align=center;verticalAlign=middle;resizable=0;points=[];" parent="CT363RQZues31OWTp8OF-114" vertex="1" connectable="0">
          <mxGeometry x="0.5558" y="-3" relative="1" as="geometry">
            <mxPoint y="-3" as="offset" />
          </mxGeometry>
        </mxCell>
        <mxCell id="CT363RQZues31OWTp8OF-75" style="edgeStyle=orthogonalEdgeStyle;rounded=0;orthogonalLoop=1;jettySize=auto;html=1;endArrow=classic;endFill=1;startArrow=dash;startFill=0;jumpStyle=arc;curved=0;entryX=0;entryY=0.5;entryDx=0;entryDy=0;exitX=0.5;exitY=0;exitDx=0;exitDy=0;" parent="1" source="_5qD5XHQ0qIGBPpxdDvs-13" target="CT363RQZues31OWTp8OF-4" edge="1">
          <mxGeometry relative="1" as="geometry">
            <mxPoint x="120" y="270" as="targetPoint" />
            <Array as="points">
              <mxPoint x="1120" y="200" />
              <mxPoint x="1120" y="80" />
              <mxPoint x="80" y="80" />
              <mxPoint x="80" y="250" />
            </Array>
            <mxPoint x="930" y="160" as="sourcePoint" />
          </mxGeometry>
        </mxCell>
        <mxCell id="CT363RQZues31OWTp8OF-123" value="32" style="edgeLabel;html=1;align=center;verticalAlign=middle;resizable=0;points=[];" parent="CT363RQZues31OWTp8OF-75" vertex="1" connectable="0">
          <mxGeometry x="0.2607" y="2" relative="1" as="geometry">
            <mxPoint y="-1" as="offset" />
          </mxGeometry>
        </mxCell>
        <mxCell id="CT363RQZues31OWTp8OF-124" value="NextPC" style="edgeLabel;html=1;align=center;verticalAlign=middle;resizable=0;points=[];fontSize=14;" parent="CT363RQZues31OWTp8OF-75" vertex="1" connectable="0">
          <mxGeometry x="-0.0387" y="-1" relative="1" as="geometry">
            <mxPoint as="offset" />
          </mxGeometry>
        </mxCell>
        <mxCell id="CT363RQZues31OWTp8OF-129" style="edgeStyle=orthogonalEdgeStyle;rounded=0;orthogonalLoop=1;jettySize=auto;html=1;entryX=0.25;entryY=1;entryDx=0;entryDy=0;startArrow=dash;startFill=0;" parent="1" source="CT363RQZues31OWTp8OF-55" target="CT363RQZues31OWTp8OF-58" edge="1">
          <mxGeometry relative="1" as="geometry" />
        </mxCell>
        <mxCell id="CT363RQZues31OWTp8OF-133" value="32" style="edgeLabel;html=1;align=center;verticalAlign=middle;resizable=0;points=[];" parent="CT363RQZues31OWTp8OF-129" vertex="1" connectable="0">
          <mxGeometry x="-0.0649" y="-1" relative="1" as="geometry">
            <mxPoint y="-1" as="offset" />
          </mxGeometry>
        </mxCell>
        <mxCell id="CT363RQZues31OWTp8OF-130" style="edgeStyle=orthogonalEdgeStyle;rounded=0;orthogonalLoop=1;jettySize=auto;html=1;entryX=0.75;entryY=1;entryDx=0;entryDy=0;startArrow=dash;startFill=0;" parent="1" source="CT363RQZues31OWTp8OF-74" target="CT363RQZues31OWTp8OF-58" edge="1">
          <mxGeometry relative="1" as="geometry">
            <Array as="points">
              <mxPoint x="670" y="440" />
              <mxPoint x="670" y="440" />
            </Array>
          </mxGeometry>
        </mxCell>
        <mxCell id="CT363RQZues31OWTp8OF-134" value="32" style="edgeLabel;html=1;align=center;verticalAlign=middle;resizable=0;points=[];" parent="CT363RQZues31OWTp8OF-130" vertex="1" connectable="0">
          <mxGeometry x="-0.0116" y="-1" relative="1" as="geometry">
            <mxPoint x="-1" y="-2" as="offset" />
          </mxGeometry>
        </mxCell>
        <mxCell id="CT363RQZues31OWTp8OF-132" value="" style="group" parent="1" vertex="1" connectable="0">
          <mxGeometry x="702.5" y="290" width="65" height="200" as="geometry" />
        </mxCell>
        <mxCell id="CT363RQZues31OWTp8OF-58" value="" style="shape=trapezoid;perimeter=trapezoidPerimeter;whiteSpace=wrap;html=1;fixedSize=1;rotation=90;points=[[0,0,0,0,0],[0,0.25,0,0,0],[0,0.75,0,0,0],[0,1,0,0,0],[0.16,0,0,0,0],[0.25,1,0,0,0],[0.32,0,0,0,0],[0.5,0,0,0,-66],[0.5,0,0,0,0],[0.5,1,0,0,0],[0.75,0,0,0,0],[0.75,1,0,0,0],[1,0,0,0,0],[1,0.25,0,0,0],[1,0.5,0,0,0],[1,0.75,0,0,0],[1,1,0,0,0]];" parent="CT363RQZues31OWTp8OF-132" vertex="1">
          <mxGeometry x="-68.5" y="67.5" width="200" height="65" as="geometry" />
        </mxCell>
        <mxCell id="CT363RQZues31OWTp8OF-59" value="&lt;font style=&quot;font-size: 14px;&quot;&gt;ALU&lt;/font&gt;" style="text;html=1;align=center;verticalAlign=middle;whiteSpace=wrap;rounded=0;" parent="CT363RQZues31OWTp8OF-132" vertex="1">
          <mxGeometry y="83.75" width="65" height="32.5" as="geometry" />
        </mxCell>
        <mxCell id="D4LHTWqdu4Y0QwPP1PMC-51" value="ina" style="edgeLabel;html=1;align=center;verticalAlign=middle;resizable=0;points=[];fontSize=12;fontColor=#007FFF;" parent="CT363RQZues31OWTp8OF-132" vertex="1" connectable="0">
          <mxGeometry x="12.503809523809423" y="49.99999999999977" as="geometry">
            <mxPoint x="-3" as="offset" />
          </mxGeometry>
        </mxCell>
        <mxCell id="D4LHTWqdu4Y0QwPP1PMC-52" value="inb" style="edgeLabel;html=1;align=center;verticalAlign=middle;resizable=0;points=[];fontSize=12;fontColor=#007FFF;" parent="CT363RQZues31OWTp8OF-132" vertex="1" connectable="0">
          <mxGeometry x="12.503809523809423" y="149.99999999999977" as="geometry">
            <mxPoint x="-3" as="offset" />
          </mxGeometry>
        </mxCell>
        <mxCell id="D4LHTWqdu4Y0QwPP1PMC-53" value="aluCtr" style="edgeLabel;html=1;align=center;verticalAlign=middle;resizable=0;points=[];fontSize=12;fontColor=#007FFF;labelBackgroundColor=none;" parent="CT363RQZues31OWTp8OF-132" vertex="1" connectable="0">
          <mxGeometry x="32.50380952380942" y="19.999999999999773" as="geometry">
            <mxPoint x="-3" as="offset" />
          </mxGeometry>
        </mxCell>
        <mxCell id="D4LHTWqdu4Y0QwPP1PMC-54" value="less" style="edgeLabel;html=1;align=center;verticalAlign=middle;resizable=0;points=[];fontSize=12;fontColor=#007FFF;labelBackgroundColor=none;" parent="CT363RQZues31OWTp8OF-132" vertex="1" connectable="0">
          <mxGeometry x="53.50380952380942" y="30.999999999999773" as="geometry">
            <mxPoint x="-3" as="offset" />
          </mxGeometry>
        </mxCell>
        <mxCell id="D4LHTWqdu4Y0QwPP1PMC-55" value="zero" style="edgeLabel;html=1;align=center;verticalAlign=middle;resizable=0;points=[];fontSize=12;fontColor=#007FFF;labelBackgroundColor=none;" parent="CT363RQZues31OWTp8OF-132" vertex="1" connectable="0">
          <mxGeometry x="53.50380952380942" y="62.99999999999977" as="geometry">
            <mxPoint x="-3" as="offset" />
          </mxGeometry>
        </mxCell>
        <mxCell id="D4LHTWqdu4Y0QwPP1PMC-57" value="aluOut" style="edgeLabel;html=1;align=center;verticalAlign=middle;resizable=0;points=[];fontSize=12;fontColor=#007FFF;labelBackgroundColor=none;" parent="CT363RQZues31OWTp8OF-132" vertex="1" connectable="0">
          <mxGeometry x="47.50380952380942" y="149.99999999999977" as="geometry">
            <mxPoint x="-3" as="offset" />
          </mxGeometry>
        </mxCell>
        <mxCell id="CT363RQZues31OWTp8OF-144" style="edgeStyle=orthogonalEdgeStyle;rounded=0;orthogonalLoop=1;jettySize=auto;html=1;entryX=0.25;entryY=1;entryDx=0;entryDy=0;exitX=1;exitY=0.25;exitDx=0;exitDy=0;exitPerimeter=0;jumpStyle=arc;jumpSize=10;" parent="1" source="CT363RQZues31OWTp8OF-12" target="CT363RQZues31OWTp8OF-51" edge="1">
          <mxGeometry relative="1" as="geometry">
            <mxPoint x="530" y="370" as="sourcePoint" />
            <mxPoint x="610" y="370" as="targetPoint" />
            <Array as="points">
              <mxPoint x="570" y="360" />
              <mxPoint x="570" y="210" />
            </Array>
          </mxGeometry>
        </mxCell>
        <mxCell id="CT363RQZues31OWTp8OF-146" value="rd1" style="edgeLabel;html=1;align=center;verticalAlign=middle;resizable=0;points=[];" parent="CT363RQZues31OWTp8OF-144" vertex="1" connectable="0">
          <mxGeometry x="0.8037" relative="1" as="geometry">
            <mxPoint x="3" as="offset" />
          </mxGeometry>
        </mxCell>
        <mxCell id="CT363RQZues31OWTp8OF-148" value="rd1" style="edgeLabel;html=1;align=center;verticalAlign=middle;resizable=0;points=[];fontSize=12;fontColor=#007FFF;" parent="CT363RQZues31OWTp8OF-144" vertex="1" connectable="0">
          <mxGeometry x="-0.6551" y="-4" relative="1" as="geometry">
            <mxPoint x="-50" y="-4" as="offset" />
          </mxGeometry>
        </mxCell>
        <mxCell id="D4LHTWqdu4Y0QwPP1PMC-9" value="rd2" style="edgeLabel;html=1;align=center;verticalAlign=middle;resizable=0;points=[];fontSize=12;fontColor=#007FFF;" parent="CT363RQZues31OWTp8OF-144" vertex="1" connectable="0">
          <mxGeometry x="-0.6551" y="-4" relative="1" as="geometry">
            <mxPoint x="-50" y="56" as="offset" />
          </mxGeometry>
        </mxCell>
        <mxCell id="CT363RQZues31OWTp8OF-142" style="edgeStyle=orthogonalEdgeStyle;rounded=0;orthogonalLoop=1;jettySize=auto;html=1;entryX=0.25;entryY=1;entryDx=0;entryDy=0;jumpStyle=arc;jumpSize=10;" parent="1" source="CT363RQZues31OWTp8OF-4" target="CT363RQZues31OWTp8OF-54" edge="1">
          <mxGeometry relative="1" as="geometry">
            <Array as="points">
              <mxPoint x="580" y="250" />
              <mxPoint x="580" y="320" />
            </Array>
          </mxGeometry>
        </mxCell>
        <mxCell id="CT363RQZues31OWTp8OF-80" style="edgeStyle=orthogonalEdgeStyle;rounded=0;orthogonalLoop=1;jettySize=auto;html=1;exitX=1;exitY=0.5;exitDx=0;exitDy=0;entryX=0.75;entryY=1;entryDx=0;entryDy=0;startArrow=dash;startFill=0;jumpStyle=arc;jumpSize=10;" parent="1" source="CT363RQZues31OWTp8OF-4" target="CT363RQZues31OWTp8OF-51" edge="1">
          <mxGeometry relative="1" as="geometry" />
        </mxCell>
        <mxCell id="CT363RQZues31OWTp8OF-170" style="edgeStyle=orthogonalEdgeStyle;rounded=0;orthogonalLoop=1;jettySize=auto;html=1;entryX=0;entryY=0.2;entryDx=0;entryDy=0;entryPerimeter=0;startArrow=dash;startFill=0;exitX=0.75;exitY=0;exitDx=0;exitDy=0;exitPerimeter=0;" parent="1" source="CT363RQZues31OWTp8OF-58" target="CT363RQZues31OWTp8OF-15" edge="1">
          <mxGeometry relative="1" as="geometry">
            <Array as="points">
              <mxPoint x="850" y="440" />
              <mxPoint x="850" y="390" />
            </Array>
          </mxGeometry>
        </mxCell>
        <mxCell id="CT363RQZues31OWTp8OF-173" style="edgeStyle=orthogonalEdgeStyle;rounded=0;orthogonalLoop=1;jettySize=auto;html=1;entryX=0;entryY=0.5;entryDx=0;entryDy=0;exitX=0.16;exitY=0;exitDx=0;exitDy=0;exitPerimeter=0;" parent="1" source="CT363RQZues31OWTp8OF-58" target="CT363RQZues31OWTp8OF-29" edge="1">
          <mxGeometry relative="1" as="geometry">
            <mxPoint x="780" y="320" as="sourcePoint" />
            <Array as="points">
              <mxPoint x="800" y="322" />
              <mxPoint x="800" y="250" />
            </Array>
          </mxGeometry>
        </mxCell>
        <mxCell id="CT363RQZues31OWTp8OF-176" value="less" style="edgeLabel;html=1;align=center;verticalAlign=middle;resizable=0;points=[];" parent="CT363RQZues31OWTp8OF-173" vertex="1" connectable="0">
          <mxGeometry x="-0.8055" relative="1" as="geometry">
            <mxPoint as="offset" />
          </mxGeometry>
        </mxCell>
        <mxCell id="CT363RQZues31OWTp8OF-175" style="edgeStyle=orthogonalEdgeStyle;rounded=0;orthogonalLoop=1;jettySize=auto;html=1;exitX=0.32;exitY=0;exitDx=0;exitDy=0;exitPerimeter=0;entryX=0;entryY=0.75;entryDx=0;entryDy=0;" parent="1" source="CT363RQZues31OWTp8OF-58" target="CT363RQZues31OWTp8OF-29" edge="1">
          <mxGeometry relative="1" as="geometry">
            <Array as="points">
              <mxPoint x="810" y="354" />
              <mxPoint x="810" y="270" />
            </Array>
          </mxGeometry>
        </mxCell>
        <mxCell id="CT363RQZues31OWTp8OF-177" value="zero" style="edgeLabel;html=1;align=center;verticalAlign=middle;resizable=0;points=[];" parent="CT363RQZues31OWTp8OF-175" vertex="1" connectable="0">
          <mxGeometry x="-0.8085" y="1" relative="1" as="geometry">
            <mxPoint x="1" as="offset" />
          </mxGeometry>
        </mxCell>
        <mxCell id="4MkyjWFhjKOOJ_4zccv9-1" value="" style="group" parent="1" vertex="1" connectable="0">
          <mxGeometry x="1080" y="290" width="60" height="120" as="geometry" />
        </mxCell>
        <mxCell id="CT363RQZues31OWTp8OF-35" value="" style="shape=trapezoid;perimeter=trapezoidPerimeter;whiteSpace=wrap;html=1;fixedSize=1;rotation=90;" parent="4MkyjWFhjKOOJ_4zccv9-1" vertex="1">
          <mxGeometry x="-30" y="30" width="120" height="60" as="geometry" />
        </mxCell>
        <mxCell id="CT363RQZues31OWTp8OF-36" value="MUX" style="text;html=1;align=center;verticalAlign=middle;whiteSpace=wrap;rounded=0;fontSize=14;" parent="4MkyjWFhjKOOJ_4zccv9-1" vertex="1">
          <mxGeometry y="45" width="60" height="30" as="geometry" />
        </mxCell>
        <mxCell id="D4LHTWqdu4Y0QwPP1PMC-19" value="regWe" style="text;html=1;align=center;verticalAlign=middle;resizable=0;points=[];autosize=1;strokeColor=none;fillColor=none;fontColor=#7F00FF;" parent="1" vertex="1">
          <mxGeometry x="360" y="414" width="60" height="30" as="geometry" />
        </mxCell>
        <mxCell id="D4LHTWqdu4Y0QwPP1PMC-20" style="edgeStyle=orthogonalEdgeStyle;rounded=0;orthogonalLoop=1;jettySize=auto;html=1;entryX=0;entryY=0.83;entryDx=0;entryDy=0;entryPerimeter=0;" parent="1" source="D4LHTWqdu4Y0QwPP1PMC-19" target="CT363RQZues31OWTp8OF-12" edge="1">
          <mxGeometry relative="1" as="geometry" />
        </mxCell>
        <mxCell id="D4LHTWqdu4Y0QwPP1PMC-22" style="edgeStyle=orthogonalEdgeStyle;rounded=0;orthogonalLoop=1;jettySize=auto;html=1;entryX=0;entryY=0.25;entryDx=0;entryDy=0;" parent="1" source="D4LHTWqdu4Y0QwPP1PMC-21" target="CT363RQZues31OWTp8OF-21" edge="1">
          <mxGeometry relative="1" as="geometry" />
        </mxCell>
        <mxCell id="D4LHTWqdu4Y0QwPP1PMC-21" value="immType" style="text;html=1;align=center;verticalAlign=middle;resizable=0;points=[];autosize=1;strokeColor=none;fillColor=none;fontColor=#7F00FF;" parent="1" vertex="1">
          <mxGeometry x="346" y="545" width="70" height="30" as="geometry" />
        </mxCell>
        <mxCell id="D4LHTWqdu4Y0QwPP1PMC-28" style="edgeStyle=orthogonalEdgeStyle;rounded=0;orthogonalLoop=1;jettySize=auto;html=1;entryX=1;entryY=0.5;entryDx=0;entryDy=0;" parent="1" source="D4LHTWqdu4Y0QwPP1PMC-27" target="CT363RQZues31OWTp8OF-35" edge="1">
          <mxGeometry relative="1" as="geometry" />
        </mxCell>
        <mxCell id="D4LHTWqdu4Y0QwPP1PMC-27" value="wbSrc" style="text;html=1;align=center;verticalAlign=middle;resizable=0;points=[];autosize=1;strokeColor=none;fillColor=none;fontColor=#7F00FF;" parent="1" vertex="1">
          <mxGeometry x="1080" y="429" width="60" height="30" as="geometry" />
        </mxCell>
        <mxCell id="D4LHTWqdu4Y0QwPP1PMC-33" value="" style="group" parent="1" vertex="1" connectable="0">
          <mxGeometry x="440" y="640" width="80" height="80" as="geometry" />
        </mxCell>
        <mxCell id="CT363RQZues31OWTp8OF-26" value="" style="whiteSpace=wrap;html=1;aspect=fixed;" parent="D4LHTWqdu4Y0QwPP1PMC-33" vertex="1">
          <mxGeometry width="80" height="80" as="geometry" />
        </mxCell>
        <mxCell id="CT363RQZues31OWTp8OF-27" value="&lt;span style=&quot;font-size: 14px;&quot;&gt;Control&lt;/span&gt;" style="text;html=1;align=center;verticalAlign=middle;whiteSpace=wrap;rounded=0;" parent="D4LHTWqdu4Y0QwPP1PMC-33" vertex="1">
          <mxGeometry x="10" y="30" width="60" height="25" as="geometry" />
        </mxCell>
        <mxCell id="D4LHTWqdu4Y0QwPP1PMC-31" value="instr" style="edgeLabel;html=1;align=center;verticalAlign=middle;resizable=0;points=[];fontSize=12;fontColor=#007FFF;" parent="D4LHTWqdu4Y0QwPP1PMC-33" vertex="1" connectable="0">
          <mxGeometry x="15.003809523809423" y="20.999999999999773" as="geometry">
            <mxPoint x="-3" y="-1" as="offset" />
          </mxGeometry>
        </mxCell>
        <mxCell id="D4LHTWqdu4Y0QwPP1PMC-49" style="edgeStyle=orthogonalEdgeStyle;rounded=0;orthogonalLoop=1;jettySize=auto;html=1;" parent="1" source="D4LHTWqdu4Y0QwPP1PMC-36" target="CT363RQZues31OWTp8OF-58" edge="1">
          <mxGeometry relative="1" as="geometry" />
        </mxCell>
        <mxCell id="D4LHTWqdu4Y0QwPP1PMC-36" value="aluCtr" style="text;html=1;align=center;verticalAlign=middle;resizable=0;points=[];autosize=1;strokeColor=none;fillColor=none;fontColor=#7F00FF;" parent="1" vertex="1">
          <mxGeometry x="704" y="230" width="60" height="30" as="geometry" />
        </mxCell>
        <mxCell id="D4LHTWqdu4Y0QwPP1PMC-39" style="edgeStyle=orthogonalEdgeStyle;rounded=0;orthogonalLoop=1;jettySize=auto;html=1;" parent="1" source="D4LHTWqdu4Y0QwPP1PMC-38" target="CT363RQZues31OWTp8OF-73" edge="1">
          <mxGeometry relative="1" as="geometry" />
        </mxCell>
        <mxCell id="D4LHTWqdu4Y0QwPP1PMC-38" value="aluBSrc" style="text;html=1;align=center;verticalAlign=middle;resizable=0;points=[];autosize=1;strokeColor=none;fillColor=none;fontColor=#7F00FF;" parent="1" vertex="1">
          <mxGeometry x="585" y="494" width="70" height="30" as="geometry" />
        </mxCell>
        <mxCell id="D4LHTWqdu4Y0QwPP1PMC-45" style="edgeStyle=orthogonalEdgeStyle;rounded=0;orthogonalLoop=1;jettySize=auto;html=1;entryX=1;entryY=0.5;entryDx=0;entryDy=0;" parent="1" source="D4LHTWqdu4Y0QwPP1PMC-44" target="CT363RQZues31OWTp8OF-54" edge="1">
          <mxGeometry relative="1" as="geometry">
            <Array as="points">
              <mxPoint x="620" y="390" />
            </Array>
          </mxGeometry>
        </mxCell>
        <mxCell id="D4LHTWqdu4Y0QwPP1PMC-44" value="aluASrc" style="text;html=1;align=center;verticalAlign=middle;whiteSpace=wrap;rounded=0;fontColor=#7F00FF;" parent="1" vertex="1">
          <mxGeometry x="600" y="380" width="40" height="20" as="geometry" />
        </mxCell>
        <mxCell id="D4LHTWqdu4Y0QwPP1PMC-59" style="edgeStyle=orthogonalEdgeStyle;rounded=0;orthogonalLoop=1;jettySize=auto;html=1;entryX=0;entryY=0.25;entryDx=0;entryDy=0;" parent="1" source="D4LHTWqdu4Y0QwPP1PMC-58" target="CT363RQZues31OWTp8OF-29" edge="1">
          <mxGeometry relative="1" as="geometry" />
        </mxCell>
        <mxCell id="D4LHTWqdu4Y0QwPP1PMC-58" value="brType" style="text;html=1;align=center;verticalAlign=middle;resizable=0;points=[];autosize=1;strokeColor=none;fillColor=none;fontColor=#7F00FF;" parent="1" vertex="1">
          <mxGeometry x="740" y="215" width="60" height="30" as="geometry" />
        </mxCell>
        <mxCell id="D4LHTWqdu4Y0QwPP1PMC-67" value="PCASrc" style="text;html=1;align=center;verticalAlign=middle;resizable=0;points=[];autosize=1;strokeColor=none;fillColor=none;fontColor=#7F00FF;" parent="1" vertex="1">
          <mxGeometry x="930" y="215" width="70" height="30" as="geometry" />
        </mxCell>
        <mxCell id="D4LHTWqdu4Y0QwPP1PMC-69" value="PCBSrc" style="text;html=1;align=center;verticalAlign=middle;resizable=0;points=[];autosize=1;strokeColor=none;fillColor=none;fontColor=#7F00FF;" parent="1" vertex="1">
          <mxGeometry x="930" y="255" width="70" height="30" as="geometry" />
        </mxCell>
        <mxCell id="D4LHTWqdu4Y0QwPP1PMC-70" style="edgeStyle=orthogonalEdgeStyle;rounded=0;orthogonalLoop=1;jettySize=auto;html=1;exitX=1;exitY=0.25;exitDx=0;exitDy=0;" parent="1" source="CT363RQZues31OWTp8OF-29" target="D4LHTWqdu4Y0QwPP1PMC-67" edge="1">
          <mxGeometry relative="1" as="geometry" />
        </mxCell>
        <mxCell id="D4LHTWqdu4Y0QwPP1PMC-71" style="edgeStyle=orthogonalEdgeStyle;rounded=0;orthogonalLoop=1;jettySize=auto;html=1;exitX=1;exitY=0.75;exitDx=0;exitDy=0;" parent="1" source="CT363RQZues31OWTp8OF-29" target="D4LHTWqdu4Y0QwPP1PMC-69" edge="1">
          <mxGeometry relative="1" as="geometry" />
        </mxCell>
        <mxCell id="D4LHTWqdu4Y0QwPP1PMC-75" style="edgeStyle=orthogonalEdgeStyle;rounded=0;orthogonalLoop=1;jettySize=auto;html=1;entryX=1;entryY=0.5;entryDx=0;entryDy=0;" parent="1" source="D4LHTWqdu4Y0QwPP1PMC-74" target="CT363RQZues31OWTp8OF-51" edge="1">
          <mxGeometry relative="1" as="geometry">
            <Array as="points">
              <mxPoint x="620" y="280" />
            </Array>
          </mxGeometry>
        </mxCell>
        <mxCell id="D4LHTWqdu4Y0QwPP1PMC-74" value="PCBSrc" style="text;html=1;align=center;verticalAlign=middle;whiteSpace=wrap;rounded=0;fontColor=#7F00FF;" parent="1" vertex="1">
          <mxGeometry x="630" y="270" width="40" height="20" as="geometry" />
        </mxCell>
        <mxCell id="D4LHTWqdu4Y0QwPP1PMC-77" style="edgeStyle=orthogonalEdgeStyle;rounded=0;orthogonalLoop=1;jettySize=auto;html=1;entryX=1;entryY=0.5;entryDx=0;entryDy=0;" parent="1" source="D4LHTWqdu4Y0QwPP1PMC-73" target="CT363RQZues31OWTp8OF-38" edge="1">
          <mxGeometry relative="1" as="geometry">
            <Array as="points">
              <mxPoint x="620" y="180" />
            </Array>
          </mxGeometry>
        </mxCell>
        <mxCell id="D4LHTWqdu4Y0QwPP1PMC-73" value="PCASrc" style="text;html=1;align=center;verticalAlign=middle;whiteSpace=wrap;rounded=0;fontColor=#7F00FF;" parent="1" vertex="1">
          <mxGeometry x="630" y="170" width="40" height="20" as="geometry" />
        </mxCell>
        <mxCell id="D4LHTWqdu4Y0QwPP1PMC-96" value="memWe" style="text;html=1;align=center;verticalAlign=middle;whiteSpace=wrap;rounded=0;fontColor=#7F00FF;" parent="1" vertex="1">
          <mxGeometry x="900" y="524" width="60" height="30" as="geometry" />
        </mxCell>
        <mxCell id="D4LHTWqdu4Y0QwPP1PMC-98" value="memOp" style="text;html=1;align=center;verticalAlign=middle;whiteSpace=wrap;rounded=0;fontColor=#7F00FF;" parent="1" vertex="1">
          <mxGeometry x="890" y="320" width="40" height="20" as="geometry" />
        </mxCell>
        <mxCell id="D4LHTWqdu4Y0QwPP1PMC-102" style="edgeStyle=orthogonalEdgeStyle;rounded=0;orthogonalLoop=1;jettySize=auto;html=1;entryX=0.75;entryY=1;entryDx=0;entryDy=0;entryPerimeter=0;" parent="1" source="D4LHTWqdu4Y0QwPP1PMC-96" target="CT363RQZues31OWTp8OF-15" edge="1">
          <mxGeometry relative="1" as="geometry" />
        </mxCell>
        <mxCell id="D4LHTWqdu4Y0QwPP1PMC-104" style="edgeStyle=orthogonalEdgeStyle;rounded=0;orthogonalLoop=1;jettySize=auto;html=1;entryX=0.5;entryY=0;entryDx=0;entryDy=0;entryPerimeter=0;" parent="1" source="D4LHTWqdu4Y0QwPP1PMC-98" target="CT363RQZues31OWTp8OF-15" edge="1">
          <mxGeometry relative="1" as="geometry" />
        </mxCell>
        <mxCell id="D4LHTWqdu4Y0QwPP1PMC-106" value="memValid" style="text;html=1;align=center;verticalAlign=middle;whiteSpace=wrap;rounded=0;fontColor=#7F00FF;" parent="1" vertex="1">
          <mxGeometry x="775" y="403" width="52" height="26" as="geometry" />
        </mxCell>
        <mxCell id="OIBxPijXESQaB5WeByGO-11" value="" style="group" parent="1" vertex="1" connectable="0">
          <mxGeometry x="590" y="190" width="60" height="80" as="geometry" />
        </mxCell>
        <mxCell id="CT363RQZues31OWTp8OF-51" value="" style="shape=trapezoid;perimeter=trapezoidPerimeter;whiteSpace=wrap;html=1;fixedSize=1;rotation=90;" parent="OIBxPijXESQaB5WeByGO-11" vertex="1">
          <mxGeometry x="-10" y="20" width="80" height="40" as="geometry" />
        </mxCell>
        <mxCell id="CT363RQZues31OWTp8OF-52" value="MUX" style="text;html=1;align=center;verticalAlign=middle;whiteSpace=wrap;rounded=0;fontSize=12;" parent="OIBxPijXESQaB5WeByGO-11" vertex="1">
          <mxGeometry y="25" width="60" height="30" as="geometry" />
        </mxCell>
        <mxCell id="OIBxPijXESQaB5WeByGO-18" value="" style="group" parent="1" vertex="1" connectable="0">
          <mxGeometry x="740" y="664" width="60" height="80" as="geometry" />
        </mxCell>
        <mxCell id="OIBxPijXESQaB5WeByGO-19" value="" style="shape=trapezoid;perimeter=trapezoidPerimeter;whiteSpace=wrap;html=1;fixedSize=1;rotation=90;" parent="OIBxPijXESQaB5WeByGO-18" vertex="1">
          <mxGeometry x="-10" y="19" width="80" height="40" as="geometry" />
        </mxCell>
        <mxCell id="OIBxPijXESQaB5WeByGO-20" value="MUX" style="text;html=1;align=center;verticalAlign=middle;whiteSpace=wrap;rounded=0;fontSize=12;" parent="OIBxPijXESQaB5WeByGO-18" vertex="1">
          <mxGeometry y="25" width="60" height="30" as="geometry" />
        </mxCell>
        <mxCell id="CT363RQZues31OWTp8OF-126" style="edgeStyle=orthogonalEdgeStyle;rounded=0;orthogonalLoop=1;jettySize=auto;html=1;exitX=1;exitY=0.25;exitDx=0;exitDy=0;exitPerimeter=0;entryX=0.75;entryY=1;entryDx=0;entryDy=0;jumpStyle=arc;startArrow=dash;startFill=0;jumpSize=10;" parent="1" source="CT363RQZues31OWTp8OF-12" target="CT363RQZues31OWTp8OF-54" edge="1">
          <mxGeometry relative="1" as="geometry" />
        </mxCell>
        <mxCell id="OIBxPijXESQaB5WeByGO-25" value="32" style="edgeLabel;html=1;align=center;verticalAlign=middle;resizable=0;points=[];" parent="CT363RQZues31OWTp8OF-126" vertex="1" connectable="0">
          <mxGeometry x="-0.1833" relative="1" as="geometry">
            <mxPoint as="offset" />
          </mxGeometry>
        </mxCell>
        <mxCell id="CT363RQZues31OWTp8OF-168" style="edgeStyle=orthogonalEdgeStyle;rounded=0;orthogonalLoop=1;jettySize=auto;html=1;exitX=1;exitY=0.75;exitDx=0;exitDy=0;exitPerimeter=0;startArrow=dash;startFill=0;entryX=0;entryY=0.8;entryDx=0;entryDy=0;entryPerimeter=0;jumpStyle=arc;jumpSize=10;" parent="1" source="CT363RQZues31OWTp8OF-12" target="CT363RQZues31OWTp8OF-15" edge="1">
          <mxGeometry relative="1" as="geometry">
            <mxPoint x="530" y="430" as="sourcePoint" />
            <mxPoint x="780.8888346354166" y="500" as="targetPoint" />
            <Array as="points">
              <mxPoint x="530" y="420" />
              <mxPoint x="530" y="520" />
              <mxPoint x="840" y="520" />
              <mxPoint x="840" y="468" />
            </Array>
          </mxGeometry>
        </mxCell>
        <mxCell id="OIBxPijXESQaB5WeByGO-39" value="Control Signal" style="swimlane;fontStyle=0;childLayout=stackLayout;horizontal=1;startSize=26;fillColor=none;horizontalStack=0;resizeParent=1;resizeParentMax=0;resizeLast=0;collapsible=1;marginBottom=0;html=1;verticalAlign=middle;" parent="1" vertex="1">
          <mxGeometry x="570" y="665" width="80" height="264" as="geometry">
            <mxRectangle x="570" y="665" width="120" height="30" as="alternateBounds" />
          </mxGeometry>
        </mxCell>
        <mxCell id="OIBxPijXESQaB5WeByGO-40" value="immType" style="text;strokeColor=none;fillColor=none;align=center;verticalAlign=bottom;spacingLeft=4;spacingRight=4;overflow=hidden;rotatable=0;points=[[0,0.5],[1,0.5]];portConstraint=eastwest;whiteSpace=wrap;html=1;fontColor=#7F00FF;" parent="OIBxPijXESQaB5WeByGO-39" vertex="1">
          <mxGeometry y="26" width="80" height="17" as="geometry" />
        </mxCell>
        <mxCell id="OIBxPijXESQaB5WeByGO-41" value="regWe" style="text;strokeColor=none;fillColor=none;align=center;verticalAlign=bottom;spacingLeft=4;spacingRight=4;overflow=hidden;rotatable=0;points=[[0,0.5],[1,0.5]];portConstraint=eastwest;whiteSpace=wrap;html=1;fontColor=#7F00FF;" parent="OIBxPijXESQaB5WeByGO-39" vertex="1">
          <mxGeometry y="43" width="80" height="17" as="geometry" />
        </mxCell>
        <mxCell id="OIBxPijXESQaB5WeByGO-42" value="aluASrc" style="text;strokeColor=none;fillColor=none;align=center;verticalAlign=bottom;spacingLeft=4;spacingRight=4;overflow=hidden;rotatable=0;points=[[0,0.5],[1,0.5]];portConstraint=eastwest;whiteSpace=wrap;html=1;fontColor=#7F00FF;" parent="OIBxPijXESQaB5WeByGO-39" vertex="1">
          <mxGeometry y="60" width="80" height="17" as="geometry" />
        </mxCell>
        <mxCell id="OIBxPijXESQaB5WeByGO-43" value="aluBSrc" style="text;strokeColor=none;fillColor=none;align=center;verticalAlign=bottom;spacingLeft=4;spacingRight=4;overflow=hidden;rotatable=0;points=[[0,0.5],[1,0.5]];portConstraint=eastwest;whiteSpace=wrap;html=1;fontColor=#7F00FF;" parent="OIBxPijXESQaB5WeByGO-39" vertex="1">
          <mxGeometry y="77" width="80" height="17" as="geometry" />
        </mxCell>
        <mxCell id="OIBxPijXESQaB5WeByGO-44" value="aluCtr" style="text;strokeColor=none;fillColor=none;align=center;verticalAlign=bottom;spacingLeft=4;spacingRight=4;overflow=hidden;rotatable=0;points=[[0,0.5],[1,0.5]];portConstraint=eastwest;whiteSpace=wrap;html=1;fontColor=#7F00FF;" parent="OIBxPijXESQaB5WeByGO-39" vertex="1">
          <mxGeometry y="94" width="80" height="17" as="geometry" />
        </mxCell>
        <mxCell id="OIBxPijXESQaB5WeByGO-45" value="brType" style="text;strokeColor=none;fillColor=none;align=center;verticalAlign=bottom;spacingLeft=4;spacingRight=4;overflow=hidden;rotatable=0;points=[[0,0.5],[1,0.5]];portConstraint=eastwest;whiteSpace=wrap;html=1;fontColor=#7F00FF;" parent="OIBxPijXESQaB5WeByGO-39" vertex="1">
          <mxGeometry y="111" width="80" height="17" as="geometry" />
        </mxCell>
        <mxCell id="OIBxPijXESQaB5WeByGO-46" value="wbSrc" style="text;strokeColor=none;fillColor=none;align=center;verticalAlign=bottom;spacingLeft=4;spacingRight=4;overflow=hidden;rotatable=0;points=[[0,0.5],[1,0.5]];portConstraint=eastwest;whiteSpace=wrap;html=1;fontColor=#7F00FF;" parent="OIBxPijXESQaB5WeByGO-39" vertex="1">
          <mxGeometry y="128" width="80" height="17" as="geometry" />
        </mxCell>
        <mxCell id="OIBxPijXESQaB5WeByGO-47" value="memValid" style="text;strokeColor=none;fillColor=none;align=center;verticalAlign=bottom;spacingLeft=4;spacingRight=4;overflow=hidden;rotatable=0;points=[[0,0.5],[1,0.5]];portConstraint=eastwest;whiteSpace=wrap;html=1;fontColor=#7F00FF;" parent="OIBxPijXESQaB5WeByGO-39" vertex="1">
          <mxGeometry y="145" width="80" height="17" as="geometry" />
        </mxCell>
        <mxCell id="OIBxPijXESQaB5WeByGO-48" value="memWe" style="text;strokeColor=none;fillColor=none;align=center;verticalAlign=bottom;spacingLeft=4;spacingRight=4;overflow=hidden;rotatable=0;points=[[0,0.5],[1,0.5]];portConstraint=eastwest;whiteSpace=wrap;html=1;fontColor=#7F00FF;" parent="OIBxPijXESQaB5WeByGO-39" vertex="1">
          <mxGeometry y="162" width="80" height="17" as="geometry" />
        </mxCell>
        <mxCell id="OIBxPijXESQaB5WeByGO-49" value="memOp" style="text;strokeColor=none;fillColor=none;align=center;verticalAlign=bottom;spacingLeft=4;spacingRight=4;overflow=hidden;rotatable=0;points=[[0,0.5],[1,0.5]];portConstraint=eastwest;whiteSpace=wrap;html=1;fontColor=#7F00FF;" parent="OIBxPijXESQaB5WeByGO-39" vertex="1">
          <mxGeometry y="179" width="80" height="17" as="geometry" />
        </mxCell>
        <mxCell id="OIBxPijXESQaB5WeByGO-50" value="isEnd" style="text;strokeColor=none;fillColor=none;align=center;verticalAlign=bottom;spacingLeft=4;spacingRight=4;overflow=hidden;rotatable=0;points=[[0,0.5],[1,0.5]];portConstraint=eastwest;whiteSpace=wrap;html=1;fontColor=#7F00FF;" parent="OIBxPijXESQaB5WeByGO-39" vertex="1">
          <mxGeometry y="196" width="80" height="17" as="geometry" />
        </mxCell>
        <mxCell id="OIBxPijXESQaB5WeByGO-51" value="CSRSrc" style="text;strokeColor=none;fillColor=none;align=center;verticalAlign=bottom;spacingLeft=4;spacingRight=4;overflow=hidden;rotatable=0;points=[[0,0.5],[1,0.5]];portConstraint=eastwest;whiteSpace=wrap;html=1;fontColor=#7F00FF;" parent="OIBxPijXESQaB5WeByGO-39" vertex="1">
          <mxGeometry y="213" width="80" height="17" as="geometry" />
        </mxCell>
        <mxCell id="OIBxPijXESQaB5WeByGO-55" value="CSRCtr" style="text;strokeColor=none;fillColor=none;align=center;verticalAlign=bottom;spacingLeft=4;spacingRight=4;overflow=hidden;rotatable=0;points=[[0,0.5],[1,0.5]];portConstraint=eastwest;whiteSpace=wrap;html=1;fontColor=#7F00FF;" parent="OIBxPijXESQaB5WeByGO-39" vertex="1">
          <mxGeometry y="230" width="80" height="17" as="geometry" />
        </mxCell>
        <mxCell id="_5qD5XHQ0qIGBPpxdDvs-22" value="PCSel" style="text;strokeColor=none;fillColor=none;align=center;verticalAlign=bottom;spacingLeft=4;spacingRight=4;overflow=hidden;rotatable=0;points=[[0,0.5],[1,0.5]];portConstraint=eastwest;whiteSpace=wrap;html=1;fontColor=#7F00FF;" vertex="1" parent="OIBxPijXESQaB5WeByGO-39">
          <mxGeometry y="247" width="80" height="17" as="geometry" />
        </mxCell>
        <mxCell id="OIBxPijXESQaB5WeByGO-53" value="CSRCtr" style="text;html=1;align=center;verticalAlign=middle;whiteSpace=wrap;rounded=0;fontColor=#7F00FF;" parent="1" vertex="1">
          <mxGeometry x="861" y="554" width="60" height="30" as="geometry" />
        </mxCell>
        <mxCell id="OIBxPijXESQaB5WeByGO-57" style="edgeStyle=orthogonalEdgeStyle;rounded=0;orthogonalLoop=1;jettySize=auto;html=1;entryX=0;entryY=0.5;entryDx=0;entryDy=0;" parent="1" source="OIBxPijXESQaB5WeByGO-56" target="OIBxPijXESQaB5WeByGO-19" edge="1">
          <mxGeometry relative="1" as="geometry" />
        </mxCell>
        <mxCell id="OIBxPijXESQaB5WeByGO-56" value="CSRSrc" style="text;html=1;align=center;verticalAlign=middle;whiteSpace=wrap;rounded=0;fontColor=#7F00FF;" parent="1" vertex="1">
          <mxGeometry x="740" y="590" width="60" height="30" as="geometry" />
        </mxCell>
        <mxCell id="OIBxPijXESQaB5WeByGO-61" style="edgeStyle=orthogonalEdgeStyle;rounded=0;orthogonalLoop=1;jettySize=auto;html=1;entryX=0;entryY=0.75;entryDx=0;entryDy=0;entryPerimeter=0;exitX=0.5;exitY=0;exitDx=0;exitDy=0;" parent="1" source="OIBxPijXESQaB5WeByGO-19" target="OIBxPijXESQaB5WeByGO-3" edge="1">
          <mxGeometry relative="1" as="geometry" />
        </mxCell>
        <mxCell id="OIBxPijXESQaB5WeByGO-2" value="" style="group" parent="1" vertex="1" connectable="0">
          <mxGeometry x="841" y="606" width="100" height="130" as="geometry" />
        </mxCell>
        <mxCell id="_WPy62xfrjCXm8pKiQzA-4" value="" style="group" parent="OIBxPijXESQaB5WeByGO-2" vertex="1" connectable="0">
          <mxGeometry width="100" height="130" as="geometry" />
        </mxCell>
        <mxCell id="OIBxPijXESQaB5WeByGO-3" value="" style="rounded=0;whiteSpace=wrap;html=1;points=[[0,0,0,0,0],[0,0.25,0,0,0],[0,0.5,0,0,0],[0,0.75,0,0,0],[0,1,0,0,0],[0.25,0,0,0,0],[0.25,1,0,0,0],[0.5,0,0,0,0],[0.5,1,0,0,0],[0.75,0,0,0,0],[0.75,1,0,0,0],[1,0,0,0,0],[1,0.25,0,0,0],[1,0.5,0,0,0],[1,0.75,0,0,0],[1,1,0,0,0]];" parent="_WPy62xfrjCXm8pKiQzA-4" vertex="1">
          <mxGeometry width="100" height="130" as="geometry" />
        </mxCell>
        <mxCell id="OIBxPijXESQaB5WeByGO-4" value="CSR&lt;br&gt;Control" style="text;html=1;align=center;verticalAlign=middle;whiteSpace=wrap;rounded=0;fontSize=14;" parent="_WPy62xfrjCXm8pKiQzA-4" vertex="1">
          <mxGeometry x="20" y="50" width="60" height="30" as="geometry" />
        </mxCell>
        <mxCell id="OIBxPijXESQaB5WeByGO-5" value="&lt;font color=&quot;#007fff&quot;&gt;clock&lt;/font&gt;" style="text;html=1;align=center;verticalAlign=middle;whiteSpace=wrap;rounded=0;" parent="_WPy62xfrjCXm8pKiQzA-4" vertex="1">
          <mxGeometry x="5.5" y="119" width="29" height="10" as="geometry" />
        </mxCell>
        <mxCell id="OIBxPijXESQaB5WeByGO-7" value="csrIn" style="edgeLabel;html=1;align=center;verticalAlign=middle;resizable=0;points=[];fontSize=12;fontColor=#007FFF;labelBackgroundColor=none;" parent="_WPy62xfrjCXm8pKiQzA-4" vertex="1" connectable="0">
          <mxGeometry x="16.003809523809423" y="98.99999999999977" as="geometry">
            <mxPoint x="-1" y="-2" as="offset" />
          </mxGeometry>
        </mxCell>
        <mxCell id="OIBxPijXESQaB5WeByGO-8" value="csrCtr" style="text;html=1;align=center;verticalAlign=middle;whiteSpace=wrap;rounded=0;fontColor=#007FFF;" parent="_WPy62xfrjCXm8pKiQzA-4" vertex="1">
          <mxGeometry x="35.5" width="29" height="10" as="geometry" />
        </mxCell>
        <mxCell id="_WPy62xfrjCXm8pKiQzA-1" value="csrAddr" style="text;html=1;align=center;verticalAlign=middle;whiteSpace=wrap;rounded=0;fontColor=#007FFF;" parent="_WPy62xfrjCXm8pKiQzA-4" vertex="1">
          <mxGeometry x="3.25" y="59" width="39.5" height="12" as="geometry" />
        </mxCell>
        <mxCell id="j3lGkmes57TnUZFngEGb-28" value="pc" style="text;html=1;align=center;verticalAlign=middle;whiteSpace=wrap;rounded=0;fontColor=#007FFF;" parent="_WPy62xfrjCXm8pKiQzA-4" vertex="1">
          <mxGeometry x="-1" y="24" width="20" height="16" as="geometry" />
        </mxCell>
        <mxCell id="OIBxPijXESQaB5WeByGO-59" value="csrOut" style="text;html=1;align=center;verticalAlign=middle;whiteSpace=wrap;rounded=0;fontColor=#007FFF;" parent="OIBxPijXESQaB5WeByGO-2" vertex="1">
          <mxGeometry x="60.5" y="26" width="39.5" height="12" as="geometry" />
        </mxCell>
        <mxCell id="_WPy62xfrjCXm8pKiQzA-5" style="edgeStyle=orthogonalEdgeStyle;rounded=0;orthogonalLoop=1;jettySize=auto;html=1;entryX=0.5;entryY=0;entryDx=0;entryDy=0;entryPerimeter=0;" parent="1" source="OIBxPijXESQaB5WeByGO-53" target="OIBxPijXESQaB5WeByGO-3" edge="1">
          <mxGeometry relative="1" as="geometry" />
        </mxCell>
        <mxCell id="_WPy62xfrjCXm8pKiQzA-6" style="edgeStyle=orthogonalEdgeStyle;rounded=0;orthogonalLoop=1;jettySize=auto;html=1;entryX=0.25;entryY=1;entryDx=0;entryDy=0;entryPerimeter=0;jumpStyle=arc;jumpSize=10;strokeColor=#FF0000;" parent="1" source="CT363RQZues31OWTp8OF-64" target="OIBxPijXESQaB5WeByGO-3" edge="1">
          <mxGeometry relative="1" as="geometry">
            <Array as="points">
              <mxPoint x="140" y="360" />
              <mxPoint x="140" y="800" />
              <mxPoint x="866" y="800" />
            </Array>
          </mxGeometry>
        </mxCell>
        <mxCell id="OIBxPijXESQaB5WeByGO-26" style="edgeStyle=orthogonalEdgeStyle;rounded=0;orthogonalLoop=1;jettySize=auto;html=1;entryX=0.75;entryY=1;entryDx=0;entryDy=0;jumpStyle=arc;jumpSize=10;" parent="1" source="D4LHTWqdu4Y0QwPP1PMC-7" target="OIBxPijXESQaB5WeByGO-19" edge="1">
          <mxGeometry relative="1" as="geometry">
            <mxPoint x="800" y="730" as="targetPoint" />
            <Array as="points">
              <mxPoint x="340" y="390" />
              <mxPoint x="340" y="760" />
              <mxPoint x="700" y="760" />
              <mxPoint x="700" y="723" />
            </Array>
          </mxGeometry>
        </mxCell>
        <mxCell id="OIBxPijXESQaB5WeByGO-28" value="uimm" style="edgeLabel;html=1;align=center;verticalAlign=middle;resizable=0;points=[];" parent="OIBxPijXESQaB5WeByGO-26" vertex="1" connectable="0">
          <mxGeometry x="0.9296" y="1" relative="1" as="geometry">
            <mxPoint x="1" y="1" as="offset" />
          </mxGeometry>
        </mxCell>
        <mxCell id="CT363RQZues31OWTp8OF-115" style="rounded=0;orthogonalLoop=1;jettySize=auto;html=1;entryX=0;entryY=0.67;entryDx=0;entryDy=0;entryPerimeter=0;elbow=vertical;edgeStyle=orthogonalEdgeStyle;exitX=1;exitY=0.5;exitDx=0;exitDy=0;jumpStyle=arc;jumpSize=10;startArrow=dash;startFill=0;" parent="1" source="CT363RQZues31OWTp8OF-36" target="CT363RQZues31OWTp8OF-12" edge="1">
          <mxGeometry relative="1" as="geometry">
            <mxPoint x="1050" y="401" as="sourcePoint" />
            <mxPoint x="399.9999999999999" y="411.4000000000001" as="targetPoint" />
            <Array as="points">
              <mxPoint x="1220" y="350" />
              <mxPoint x="1220" y="770" />
              <mxPoint x="320" y="770" />
              <mxPoint x="320" y="410" />
            </Array>
          </mxGeometry>
        </mxCell>
        <mxCell id="D4LHTWqdu4Y0QwPP1PMC-108" value="writeToReg" style="edgeLabel;html=1;align=center;verticalAlign=middle;resizable=0;points=[];" parent="CT363RQZues31OWTp8OF-115" vertex="1" connectable="0">
          <mxGeometry x="-0.9679" y="-2" relative="1" as="geometry">
            <mxPoint x="11" y="-2" as="offset" />
          </mxGeometry>
        </mxCell>
        <mxCell id="CT363RQZues31OWTp8OF-166" style="edgeStyle=orthogonalEdgeStyle;rounded=0;orthogonalLoop=1;jettySize=auto;html=1;entryX=0.5;entryY=1;entryDx=0;entryDy=0;entryPerimeter=0;jumpStyle=arc;jumpSize=10;strokeColor=#ff0000;" parent="1" source="CT363RQZues31OWTp8OF-64" target="CT363RQZues31OWTp8OF-12" edge="1">
          <mxGeometry relative="1" as="geometry">
            <Array as="points">
              <mxPoint x="140" y="360" />
              <mxPoint x="140" y="470" />
              <mxPoint x="480" y="470" />
            </Array>
          </mxGeometry>
        </mxCell>
        <mxCell id="CT363RQZues31OWTp8OF-167" style="edgeStyle=orthogonalEdgeStyle;rounded=0;orthogonalLoop=1;jettySize=auto;html=1;entryX=0.25;entryY=1;entryDx=0;entryDy=0;jumpStyle=arc;jumpSize=10;strokeColor=#ff0000;entryPerimeter=0;" parent="1" source="CT363RQZues31OWTp8OF-64" target="CT363RQZues31OWTp8OF-15" edge="1">
          <mxGeometry relative="1" as="geometry">
            <Array as="points">
              <mxPoint x="140" y="360" />
              <mxPoint x="140" y="530" />
              <mxPoint x="890" y="530" />
            </Array>
          </mxGeometry>
        </mxCell>
        <mxCell id="j3lGkmes57TnUZFngEGb-29" style="edgeStyle=orthogonalEdgeStyle;rounded=0;orthogonalLoop=1;jettySize=auto;html=1;entryX=0;entryY=0.25;entryDx=0;entryDy=0;entryPerimeter=0;jumpStyle=arc;jumpSize=10;" parent="1" source="CT363RQZues31OWTp8OF-4" target="OIBxPijXESQaB5WeByGO-3" edge="1">
          <mxGeometry relative="1" as="geometry">
            <Array as="points">
              <mxPoint x="580" y="250" />
              <mxPoint x="580" y="639" />
            </Array>
          </mxGeometry>
        </mxCell>
        <mxCell id="_5qD5XHQ0qIGBPpxdDvs-17" value="PC" style="edgeLabel;html=1;align=center;verticalAlign=middle;resizable=0;points=[];" vertex="1" connectable="0" parent="j3lGkmes57TnUZFngEGb-29">
          <mxGeometry x="-0.3334" y="1" relative="1" as="geometry">
            <mxPoint y="2" as="offset" />
          </mxGeometry>
        </mxCell>
        <mxCell id="_5qD5XHQ0qIGBPpxdDvs-18" value="32" style="edgeLabel;html=1;align=center;verticalAlign=middle;resizable=0;points=[];" vertex="1" connectable="0" parent="j3lGkmes57TnUZFngEGb-29">
          <mxGeometry x="-0.829" y="-1" relative="1" as="geometry">
            <mxPoint as="offset" />
          </mxGeometry>
        </mxCell>
        <mxCell id="YnV503TO5l-ceWqFj_w4-1" value="4" style="text;html=1;align=center;verticalAlign=middle;whiteSpace=wrap;rounded=0;" parent="1" vertex="1">
          <mxGeometry x="552" y="455" width="10" height="10" as="geometry" />
        </mxCell>
        <mxCell id="_5qD5XHQ0qIGBPpxdDvs-16" style="edgeStyle=orthogonalEdgeStyle;rounded=0;orthogonalLoop=1;jettySize=auto;html=1;entryX=0.25;entryY=1;entryDx=0;entryDy=0;startArrow=dash;startFill=0;" edge="1" parent="1" source="CT363RQZues31OWTp8OF-63" target="_5qD5XHQ0qIGBPpxdDvs-13">
          <mxGeometry relative="1" as="geometry" />
        </mxCell>
        <mxCell id="_5qD5XHQ0qIGBPpxdDvs-20" value="" style="group" vertex="1" connectable="0" parent="1">
          <mxGeometry x="1030" y="160" width="60" height="80" as="geometry" />
        </mxCell>
        <mxCell id="_5qD5XHQ0qIGBPpxdDvs-13" value="" style="shape=trapezoid;perimeter=trapezoidPerimeter;whiteSpace=wrap;html=1;fixedSize=1;rotation=90;" vertex="1" parent="_5qD5XHQ0qIGBPpxdDvs-20">
          <mxGeometry x="-10" y="20" width="80" height="40" as="geometry" />
        </mxCell>
        <mxCell id="_5qD5XHQ0qIGBPpxdDvs-14" value="MUX" style="text;html=1;align=center;verticalAlign=middle;whiteSpace=wrap;rounded=0;fontSize=12;" vertex="1" parent="_5qD5XHQ0qIGBPpxdDvs-20">
          <mxGeometry y="25" width="60" height="30" as="geometry" />
        </mxCell>
        <mxCell id="_5qD5XHQ0qIGBPpxdDvs-24" style="edgeStyle=orthogonalEdgeStyle;rounded=0;orthogonalLoop=1;jettySize=auto;html=1;entryX=1;entryY=0.5;entryDx=0;entryDy=0;" edge="1" parent="1" source="_5qD5XHQ0qIGBPpxdDvs-23" target="_5qD5XHQ0qIGBPpxdDvs-13">
          <mxGeometry relative="1" as="geometry" />
        </mxCell>
        <mxCell id="_5qD5XHQ0qIGBPpxdDvs-23" value="PCSel" style="text;html=1;align=center;verticalAlign=middle;resizable=0;points=[];autosize=1;strokeColor=none;fillColor=none;fontColor=#7F00FF;" vertex="1" parent="1">
          <mxGeometry x="1030" y="265" width="60" height="30" as="geometry" />
        </mxCell>
        <mxCell id="CT363RQZues31OWTp8OF-179" style="rounded=0;orthogonalLoop=1;jettySize=auto;html=1;entryX=0;entryY=0.5;entryDx=0;entryDy=0;exitX=1;exitY=0.5;exitDx=0;exitDy=0;exitPerimeter=0;edgeStyle=orthogonalEdgeStyle;jumpStyle=arc;jumpSize=10;" parent="1" source="CT363RQZues31OWTp8OF-15" target="CT363RQZues31OWTp8OF-36" edge="1">
          <mxGeometry relative="1" as="geometry">
            <Array as="points">
              <mxPoint x="960" y="429" />
              <mxPoint x="960" y="350" />
            </Array>
          </mxGeometry>
        </mxCell>
        <mxCell id="OIBxPijXESQaB5WeByGO-38" value="rdata" style="edgeLabel;html=1;align=center;verticalAlign=middle;resizable=0;points=[];" parent="CT363RQZues31OWTp8OF-179" vertex="1" connectable="0">
          <mxGeometry x="0.6792" y="2" relative="1" as="geometry">
            <mxPoint y="2" as="offset" />
          </mxGeometry>
        </mxCell>
        <mxCell id="CT363RQZues31OWTp8OF-180" style="rounded=0;orthogonalLoop=1;jettySize=auto;html=1;exitX=0.75;exitY=0;exitDx=0;exitDy=0;exitPerimeter=0;edgeStyle=orthogonalEdgeStyle;entryX=0.25;entryY=1;entryDx=0;entryDy=0;jumpStyle=arc;jumpSize=10;" parent="1" source="CT363RQZues31OWTp8OF-58" target="CT363RQZues31OWTp8OF-35" edge="1">
          <mxGeometry relative="1" as="geometry">
            <Array as="points">
              <mxPoint x="850" y="440" />
              <mxPoint x="850" y="320" />
            </Array>
            <mxPoint x="970" y="380" as="targetPoint" />
          </mxGeometry>
        </mxCell>
        <mxCell id="CT363RQZues31OWTp8OF-181" value="aluOut" style="edgeLabel;html=1;align=center;verticalAlign=middle;resizable=0;points=[];" parent="CT363RQZues31OWTp8OF-180" vertex="1" connectable="0">
          <mxGeometry x="-0.7221" relative="1" as="geometry">
            <mxPoint x="-21" as="offset" />
          </mxGeometry>
        </mxCell>
        <mxCell id="OIBxPijXESQaB5WeByGO-31" value="aluOut" style="edgeLabel;html=1;align=center;verticalAlign=middle;resizable=0;points=[];" parent="CT363RQZues31OWTp8OF-180" vertex="1" connectable="0">
          <mxGeometry x="0.8389" y="-1" relative="1" as="geometry">
            <mxPoint as="offset" />
          </mxGeometry>
        </mxCell>
        <mxCell id="OIBxPijXESQaB5WeByGO-29" style="edgeStyle=orthogonalEdgeStyle;rounded=0;orthogonalLoop=1;jettySize=auto;html=1;entryX=0.75;entryY=1;entryDx=0;entryDy=0;exitX=1;exitY=0.25;exitDx=0;exitDy=0;exitPerimeter=0;jumpStyle=arc;jumpSize=10;startArrow=dash;startFill=0;" parent="1" source="OIBxPijXESQaB5WeByGO-3" target="CT363RQZues31OWTp8OF-35" edge="1">
          <mxGeometry relative="1" as="geometry">
            <mxPoint x="1030" y="630" as="targetPoint" />
            <mxPoint x="940" y="690" as="sourcePoint" />
            <Array as="points">
              <mxPoint x="1000" y="639" />
              <mxPoint x="1000" y="380" />
            </Array>
          </mxGeometry>
        </mxCell>
        <mxCell id="OIBxPijXESQaB5WeByGO-37" value="csr" style="edgeLabel;html=1;align=center;verticalAlign=middle;resizable=0;points=[];" parent="OIBxPijXESQaB5WeByGO-29" vertex="1" connectable="0">
          <mxGeometry x="0.8794" y="1" relative="1" as="geometry">
            <mxPoint x="-13" y="1" as="offset" />
          </mxGeometry>
        </mxCell>
        <mxCell id="D4LHTWqdu4Y0QwPP1PMC-107" style="rounded=0;orthogonalLoop=1;jettySize=auto;html=1;jumpStyle=arc;jumpSize=10;exitX=1;exitY=0.5;exitDx=0;exitDy=0;" parent="1" source="D4LHTWqdu4Y0QwPP1PMC-106" edge="1">
          <mxGeometry relative="1" as="geometry">
            <mxPoint x="870" y="416" as="targetPoint" />
          </mxGeometry>
        </mxCell>
      </root>
    </mxGraphModel>
  </diagram>
</mxfile>
